<svg version="1.1" id="svg-worksheet-refresh" xmlns="http://www.w3.org/2000/svg" xmlns:xlink="http://www.w3.org/1999/xlink" x="0px" y="0px" width="200px" height="200px" viewBox="0 0 200 200" enable-background="new 0 0 200 200" xml:space="preserve">
	<path fill="none" d="M10.337,177.162c0-51.441,0-102.883,0-154.324c59.775,0,119.549,0,179.325,0c0,51.441,0,102.882,0,154.324
	C129.887,177.162,70.113,177.162,10.337,177.162z M138.381,99.859c-1.203,0.066-2.111,0.155-3.021,0.161
	c-3.592,0.021-7.189-0.116-10.77,0.076c-1.641,0.089-3.408,0.51-4.844,1.285c-7.857,4.244-9.445,13.804-3.254,20.208
	c8.205,8.492,16.547,16.857,24.943,25.161c4.391,4.341,9.977,5.396,15.057,2.76c2.127-1.104,3.924-2.95,5.666-4.668
	c7.859-7.756,15.734-15.501,23.424-23.426c3.998-4.118,4.594-9.23,2.15-14.283c-2.211-4.568-6.076-7.179-11.42-7.116
	c-3.518,0.041-7.037,0-10.557-0.021c-0.617-0.005-1.234-0.094-1.934-0.149c-0.699-20.693-7.664-38.633-22.131-53.392
	c-14.531-14.822-32.443-22.382-52.99-22.875c-17.568-0.422-33.71,4.849-47.738,15.662C25.67,51.031,15.974,66.515,12.265,85.446
	c-5.735,29.27,6.022,64.608,40.351,82.634c11.334,5.953,23.599,8.751,36.271,8.347c12.629-0.399,24.862-3.201,35.844-10.186
	c-0.334-0.593-0.449-0.96-0.689-1.198c-5.568-5.494-11.113-11.016-16.783-16.405c-0.668-0.635-2.203-0.987-3.062-0.688
	c-4.669,1.626-9.43,2.589-14.364,2.834c-6.27,0.313-12.434-0.365-18.372-2.341c-6.716-2.235-12.768-5.717-18.065-10.483
	c-8.606-7.746-13.936-17.327-16.218-28.633c-1.25-6.196-1.41-12.45,0.048-18.595c1.044-4.397,2.17-8.908,4.158-12.923
	c3.238-6.541,7.712-12.262,13.426-17.015c7.233-6.015,15.487-9.736,24.664-11.104c8.412-1.252,16.765-0.572,24.901,2.376
	c12.096,4.383,21.342,12.149,27.391,23.386c2.496,4.635,4.037,9.844,5.525,14.935C138.148,93.328,138.035,96.553,138.381,99.859z"/>
	<path fill-rule="evenodd" clip-rule="evenodd" d="M138.381,99.859c-0.346-3.307-0.232-6.531-1.092-9.472
	c-1.488-5.091-3.029-10.3-5.525-14.935c-6.049-11.236-15.295-19.003-27.391-23.386c-8.136-2.948-16.489-3.628-24.901-2.376
	c-9.177,1.367-17.431,5.089-24.664,11.104C49.094,65.548,44.62,71.269,41.382,77.81c-1.987,4.015-3.114,8.525-4.158,12.923
	c-1.458,6.145-1.298,12.398-0.048,18.595c2.282,11.306,7.612,20.887,16.218,28.633c5.297,4.767,11.349,8.248,18.065,10.483
	c5.938,1.976,12.103,2.654,18.372,2.341c4.934-0.245,9.694-1.208,14.364-2.834c0.859-0.3,2.395,0.053,3.062,0.688
	c5.67,5.39,11.215,10.911,16.783,16.405c0.24,0.238,0.355,0.605,0.689,1.198c-10.982,6.984-23.215,9.786-35.844,10.186
	c-12.672,0.404-24.937-2.394-36.271-8.347C18.287,150.055,6.53,114.716,12.265,85.446c3.709-18.932,13.406-34.415,28.699-46.204
	c14.028-10.813,30.17-16.084,47.738-15.662c20.547,0.493,38.459,8.053,52.99,22.875c14.467,14.759,21.432,32.698,22.131,53.392
	c0.699,0.056,1.316,0.145,1.934,0.149c3.52,0.021,7.039,0.062,10.557,0.021c5.344-0.062,9.209,2.548,11.42,7.116
	c2.443,5.053,1.848,10.165-2.15,14.283c-7.689,7.925-15.564,15.67-23.424,23.426c-1.742,1.718-3.539,3.563-5.666,4.668
	c-5.08,2.636-10.666,1.581-15.057-2.76c-8.396-8.304-16.738-16.669-24.943-25.161c-6.191-6.404-4.604-15.964,3.254-20.208
	c1.436-0.775,3.203-1.196,4.844-1.285c3.58-0.192,7.178-0.056,10.77-0.076C136.27,100.015,137.178,99.926,138.381,99.859z"/>
</svg>
