<svg version="1.1" id="main-menu-item-icon-overview" class="main-menu__item-icon" xmlns="http://www.w3.org/2000/svg" xmlns:xlink="http://www.w3.org/1999/xlink" x="0px" y="0px" width="200px" height="200px" viewBox="0 0 200 200" enable-background="new 0 0 200 200" xml:space="preserve">
    <path fill-rule="evenodd" clip-rule="evenodd" fill="#AFBDD4" d="M180.928,31.835v113.917c0,6.298-5.096,11.393-11.392,11.393
	h-40.851l14.729,14.729c4.45,4.449,4.45,11.658,0,16.108c-4.45,4.449-11.658,4.449-16.108,0l-26.121-26.121l-26.121,26.121
	c-4.45,4.449-11.659,4.449-16.109,0c-4.449-4.45-4.449-11.659,0-16.108l14.73-14.729h-40.85c-6.291,0-11.392-5.095-11.392-11.393
	V31.835c-6.291,0-11.392-5.101-11.392-11.392c0-6.291,5.101-11.392,11.392-11.392h159.485c6.297,0,11.392,5.101,11.392,11.392
	C192.319,26.734,187.225,31.835,180.928,31.835z M158.145,31.835H44.227v102.526h113.918V31.835z M78.402,122.969H55.619V88.793
	h22.784V122.969z M112.577,122.969H89.793v-68.35h22.784V122.969z M146.752,122.969h-22.783V77.402h22.783V122.969z"/>
</svg>
