<svg version="1.1" id="main-menu-item-icon-comparison" class="main-menu__item-icon" xmlns="http://www.w3.org/2000/svg" xmlns:xlink="http://www.w3.org/1999/xlink" x="0px" y="0px" width="200px" height="200px" viewBox="0 0 200 200" enable-background="new 0 0 200 200" xml:space="preserve">
    <path fill-rule="evenodd" clip-rule="evenodd" fill="#AFBDD4" d="M157.8,66.099H71.634L86.32,80.786
	c4.437,4.438,4.437,11.625,0,16.062c-4.438,4.438-11.625,4.438-16.062,0L36.182,62.772c-2.218-2.219-3.328-5.125-3.328-8.031
	c0-2.907,1.11-5.813,3.328-8.031l34.076-34.077c4.438-4.436,11.625-4.436,16.062,0c4.437,4.438,4.437,11.625,0,16.062L71.634,43.382
	H157.8c6.278,0,11.359,5.086,11.359,11.359C169.159,61.013,164.078,66.099,157.8,66.099z M44.213,134.251h86.166l-14.686-14.686
	c-4.438-4.438-4.438-11.626,0-16.062c4.437-4.437,11.625-4.437,16.062,0l34.076,34.076c2.218,2.219,3.328,5.125,3.328,8.031
	s-1.11,5.812-3.328,8.03l-34.076,34.076c-4.437,4.438-11.625,4.438-16.062,0c-4.438-4.437-4.438-11.625,0-16.062l14.686-14.687
	H44.213c-6.273,0-11.359-5.08-11.359-11.358S37.94,134.251,44.213,134.251z"/>
</svg>
