<svg version="1.1" id="main-menu-item-icon-dimensions" class="main-menu__item-icon" xmlns="http://www.w3.org/2000/svg" xmlns:xlink="http://www.w3.org/1999/xlink" x="0px" y="0px" width="200px" height="200px" viewBox="0 0 200 200" enable-background="new 0 0 200 200" xml:space="preserve">
    <path fill-rule="evenodd" clip-rule="evenodd" fill="#AFBDD4" d="M181.991,98.068l-80.15-80.151
	C95.138,11.209,86.343,7.854,77.554,7.854h-68.7v68.7c0,8.789,3.355,17.583,10.063,24.287l80.151,80.15
	c13.417,13.418,35.166,13.418,48.574,0l34.35-34.35C195.409,133.233,195.409,111.485,181.991,98.068z M165.801,130.45
	l-34.351,34.351c-4.473,4.472-11.719,4.472-16.191,0L35.109,84.65c-2.237-2.236-3.355-5.166-3.355-8.096v-45.8h45.8
	c2.929,0,5.859,1.118,8.096,3.355l80.151,80.15C170.272,118.731,170.272,125.978,165.801,130.45z M54.654,42.204
	c-6.323,0-11.45,5.126-11.45,11.45s5.127,11.45,11.45,11.45c6.324,0,11.45-5.126,11.45-11.45S60.978,42.204,54.654,42.204z"/>
</svg>
