<svg version="1.1" id="main-menu-item-icon-filters" class="main-menu__item-icon" xmlns="http://www.w3.org/2000/svg" xmlns:xlink="http://www.w3.org/1999/xlink" x="0px" y="0px" width="200px" height="200px" viewBox="0 0 200 200" enable-background="new 0 0 200 200" xml:space="preserve">
	<path fill-rule="evenodd" clip-rule="evenodd" fill="#AFBDD4" d="M181.13,145.739H98.781
	c-4.741-13.322-17.335-22.927-32.286-22.927c-14.951,0-27.545,9.604-32.286,22.927H20.64c-6.331,0-11.463,5.128-11.463,11.464
	s5.132,11.463,11.463,11.463h13.568c4.741,13.323,17.335,22.928,32.286,22.928c14.951,0,27.545-9.604,32.286-22.928h82.349
	c6.337,0,11.464-5.127,11.464-11.463S187.467,145.739,181.13,145.739z M66.495,168.666c-6.331,0-11.463-5.127-11.463-11.463
	s5.133-11.464,11.463-11.464c6.331,0,11.463,5.128,11.463,11.464S72.826,168.666,66.495,168.666z M20.64,54.031h13.568
	c4.741,13.327,17.335,22.927,32.286,22.927c14.951,0,27.545-9.6,32.286-22.927h82.349c6.337,0,11.464-5.133,11.464-11.464
	c0-6.331-5.127-11.463-11.464-11.463H98.781C94.04,17.776,81.446,8.177,66.495,8.177c-14.951,0-27.545,9.6-32.286,22.927H20.64
	c-6.331,0-11.463,5.132-11.463,11.463C9.177,48.898,14.309,54.031,20.64,54.031z M66.495,31.104
	c6.331,0,11.463,5.132,11.463,11.463c0,6.331-5.132,11.464-11.463,11.464c-6.331,0-11.463-5.133-11.463-11.464
	C55.031,36.236,60.164,31.104,66.495,31.104z M181.13,88.422h-13.568c-4.735-13.328-17.329-22.927-32.286-22.927
	c-14.956,0-27.55,9.6-32.285,22.927H20.64c-6.331,0-11.463,5.133-11.463,11.463s5.132,11.463,11.463,11.463h82.35
	c4.735,13.322,17.329,22.927,32.285,22.927c14.957,0,27.551-9.604,32.286-22.927h13.568c6.337,0,11.464-5.133,11.464-11.463
	S187.467,88.422,181.13,88.422z M135.275,111.349c-6.336,0-11.463-5.133-11.463-11.463s5.127-11.463,11.463-11.463
	c6.337,0,11.464,5.133,11.464,11.463S141.612,111.349,135.275,111.349z"/>
</svg>
