<svg version="1.1" id="main-menu-item-icon-recording" class="main-menu__item-icon" xmlns="http://www.w3.org/2000/svg" xmlns:xlink="http://www.w3.org/1999/xlink" x="0px" y="0px" width="200px" height="200px" viewBox="0 0 200 200" enable-background="new 0 0 200 200" xml:space="preserve">
    <path fill-rule="evenodd" clip-rule="evenodd" fill="#AFBDD4" d="M100.112,190.695c-50.583,0-91.583-41.008-91.583-91.583
	c0-50.583,41-91.583,91.583-91.583c50.575,0,91.583,41,91.583,91.583C191.695,149.688,150.688,190.695,100.112,190.695z
	 M100.112,30.424c-37.932,0-68.688,30.756-68.688,68.688c0,37.932,30.756,68.688,68.688,68.688
	c37.932,0,68.688-30.756,68.688-68.688C168.8,61.18,138.044,30.424,100.112,30.424z M100.112,133.456
	c-18.966,0-34.344-15.384-34.344-34.344c0-18.966,15.378-34.344,34.344-34.344c18.96,0,34.344,15.378,34.344,34.344
	C134.456,118.072,119.072,133.456,100.112,133.456z"/>
</svg>
