<svg version="1.1" id="main-menu-item-icon-dimensions" xmlns="http://www.w3.org/2000/svg" xmlns:xlink="http://www.w3.org/1999/xlink" x="0px" y="0px" width="200px" height="200px" viewBox="0 0 200 200" enable-background="new 0 0 200 200" xml:space="preserve">
    <path fill-rule="evenodd" clip-rule="evenodd" fill="#AFBDD4" d="M99.777,191.055c-50.966,0-92.277-41.317-92.277-92.277
	C7.5,47.812,48.812,6.5,99.777,6.5c50.96,0,92.277,41.312,92.277,92.277C192.055,149.737,150.737,191.055,99.777,191.055z
	 M99.777,29.569c-38.22,0-69.208,30.988-69.208,69.208c0,38.22,30.988,69.208,69.208,69.208c38.22,0,69.208-30.988,69.208-69.208
	C168.985,60.557,137.997,29.569,99.777,29.569z M114.691,130.001l-23.069-23.068l0,0c-1.065-1.059-1.904-2.332-2.49-3.745
	c-0.585-1.414-0.89-2.906-0.89-4.41l0,0V64.173c0-6.371,5.164-11.535,11.535-11.535c6.376,0,11.534,5.164,11.534,11.535v29.828
	l19.689,19.69c4.506,4.506,4.506,11.805,0,16.31C126.496,134.507,119.197,134.507,114.691,130.001z"/>
</svg>
