<svg version="1.1" id="Layer_1" xmlns="http://www.w3.org/2000/svg" xmlns:xlink="http://www.w3.org/1999/xlink" x="0px" y="0px" width="200px" height="200px" viewBox="0 0 200 200" enable-background="new 0 0 200 200" xml:space="preserve">
    <path fill-rule="evenodd" clip-rule="evenodd" fill="#313540" d="M180.422,190.771h-56.746c-6.273,0-11.35-5.075-11.35-11.349
	v-56.746c0-6.268,5.076-11.349,11.35-11.349h56.746c6.273,0,11.349,5.081,11.349,11.349v56.746
	C191.771,185.695,186.695,190.771,180.422,190.771z M169.072,134.024h-34.048v34.048h34.048V134.024z M180.422,88.629h-56.746
	c-6.273,0-11.35-5.082-11.35-11.35V20.533c0-6.267,5.076-11.349,11.35-11.349h56.746c6.273,0,11.349,5.082,11.349,11.349v56.746
	C191.771,83.547,186.695,88.629,180.422,88.629z M169.072,31.883h-34.048V65.93h34.048V31.883z M78.279,190.771H21.533
	c-6.273,0-11.349-5.075-11.349-11.349v-56.746c0-6.268,5.076-11.349,11.349-11.349h56.746c6.273,0,11.349,5.081,11.349,11.349
	v56.746C89.628,185.695,84.552,190.771,78.279,190.771z M66.93,134.024H32.883v34.048H66.93V134.024z M78.279,88.629H21.533
	c-6.273,0-11.349-5.082-11.349-11.35V20.533c0-6.267,5.076-11.349,11.349-11.349h56.746c6.273,0,11.349,5.082,11.349,11.349v56.746
	C89.628,83.547,84.552,88.629,78.279,88.629z M66.93,31.883H32.883V65.93H66.93V31.883z"/>
</svg>
