<svg version="1.1" id="Layer_1" xmlns="http://www.w3.org/2000/svg" xmlns:xlink="http://www.w3.org/1999/xlink" x="0px" y="0px" width="200px" height="200px" viewBox="0 0 200 200" enable-background="new 0 0 200 200" xml:space="preserve">
    <path fill-rule="evenodd" clip-rule="evenodd" fill="#E9EAEE" d="M121.74,99.19l65.418,65.42c5.955,5.953,5.955,15.596,0,21.548
	c-5.952,5.955-15.595,5.955-21.548,0l-65.42-65.418l-65.42,65.418c-5.953,5.955-15.596,5.955-21.549,0
	c-5.952-5.952-5.952-15.595,0-21.548l65.42-65.42l-65.42-65.42c-5.952-5.953-5.952-15.596,0-21.549
	c5.954-5.952,15.596-5.952,21.549,0l65.42,65.42l65.42-65.42c5.953-5.952,15.596-5.952,21.548,0c5.955,5.954,5.955,15.596,0,21.549
	L121.74,99.19z"/>
</svg>
