<svg version="1.1" id="Layer_1" xmlns="http://www.w3.org/2000/svg" xmlns:xlink="http://www.w3.org/1999/xlink" x="0px" y="0px" width="200px" height="200px" viewBox="0 0 200 200" enable-background="new 0 0 200 200" xml:space="preserve">
    <path fill-rule="evenodd" clip-rule="evenodd" fill="#ffffff" d="M162.069,116.364H40.188c-8.415,0-15.236-6.814-15.236-15.236
    c0-8.413,6.822-15.234,15.236-15.234h121.881c8.422,0,15.236,6.822,15.236,15.234C177.306,109.55,170.491,116.364,162.069,116.364z
     M162.069,55.422H40.188c-8.415,0-15.236-6.822-15.236-15.234c0-8.415,6.822-15.236,15.236-15.236h121.881
    c8.422,0,15.236,6.822,15.236,15.236C177.306,48.601,170.491,55.422,162.069,55.422z M40.188,146.836h121.881
    c8.422,0,15.236,6.814,15.236,15.233c0,8.422-6.814,15.236-15.236,15.236H40.188c-8.415,0-15.236-6.814-15.236-15.236
    C24.952,153.65,31.773,146.836,40.188,146.836z"/>
</svg>
